<svg width="83" height="84" viewBox="0 0 83 84" fill="none" xmlns="http://www.w3.org/2000/svg">
<rect width="82.32" height="84" rx="41.16" fill="#2A9D8F"/>
<path d="M47.2476 48.268L47.2478 48.2681L47.2489 48.2687L47.3366 48.3193C47.3949 48.3529 47.4805 48.4022 47.5898 48.4651C47.8083 48.5908 48.1216 48.7706 48.5005 48.9871C49.2582 49.4203 50.278 50.0003 51.3268 50.588C52.3757 51.1757 53.4528 51.7707 54.3252 52.2338C54.7615 52.4654 55.1455 52.6635 55.4488 52.8111C55.7576 52.9614 55.9688 53.0523 56.0672 53.0783C56.53 53.2007 57.0985 53.3436 57.5518 53.456C57.7783 53.5122 57.9759 53.5607 58.1168 53.5952C58.1872 53.6124 58.2435 53.6262 58.2822 53.6356L58.3409 53.6498L58.3416 53.65L58.3419 53.6501L58.408 53.6661L58.4417 53.7253L58.4418 53.7255L58.4424 53.7266L58.4452 53.7314C58.4476 53.7356 58.4513 53.7421 58.4562 53.7505C58.466 53.7674 58.4807 53.7922 58.4996 53.824C58.5375 53.8875 58.5928 53.9782 58.6618 54.0868C58.7999 54.3041 58.9922 54.5912 59.2097 54.8724C59.4282 55.155 59.6675 55.4253 59.8989 55.6135C60.1393 55.8089 60.3317 55.8836 60.4682 55.8572C60.7333 55.8058 61.0057 55.898 61.2483 56.0359C61.494 56.1755 61.7316 56.3747 61.9366 56.5736C62.1425 56.7732 62.3206 56.9774 62.4469 57.1311C62.5102 57.2082 62.5608 57.2729 62.5957 57.3186C62.6132 57.3414 62.6267 57.3595 62.636 57.372L62.6412 57.3791L62.6467 57.3865L62.6476 57.3878L65.5908 60.9754L67.7964 63.0318L69.7242 66.7449L69.4669 66.7466C68.4677 66.753 67.5335 66.7359 66.5965 66.7186L66.5961 66.7199L66.4575 66.716C64.8127 66.6856 63.1488 66.6581 61.0992 66.759L61.094 66.6536C58.0408 66.6548 53.6868 66.6528 48.9061 66.6502L10.9464 66.813C17.9995 75.1539 28.5411 80.4501 40.3197 80.4501C61.5551 80.4501 78.7698 63.2354 78.7698 42C78.7698 20.7646 61.5551 3.54986 40.3197 3.54986C19.0843 3.54986 1.86956 20.7646 1.86956 42C1.86956 51.3625 5.21584 59.9434 10.7776 66.612M47.2476 48.268C47.2476 48.268 47.2475 48.2679 47.2393 48.2821L47.2476 48.268ZM47.2476 48.268L47.1923 48.236L46.9113 48.3063C46.7203 47.3447 46.6393 46.2847 46.6526 45.1792C46.6886 42.2073 47.4064 38.931 48.4725 36.4044C49.5571 33.8336 49.6797 31.7246 49.528 30.2536C49.4522 29.5186 49.308 28.9439 49.182 28.5514C49.119 28.3552 49.0605 28.2044 49.0173 28.1019C48.9957 28.0507 48.978 28.0115 48.9654 27.9847C48.962 27.9773 48.9589 27.9709 48.9562 27.9654L47.8862 21.3946C47.2646 17.577 45.9555 13.7462 42.9738 11.1193C39.9873 8.48815 35.3536 7.09127 28.1428 8.07593L28.1424 8.07598C24.3641 8.6018 21.3442 10.9695 19.0959 14.0382C16.8476 17.1069 15.3604 20.8896 14.6474 24.2796C13.485 29.8073 15.1122 35.2697 17.386 40.6525C18.124 42.3997 18.9329 44.1444 19.7382 45.8815C20.1729 46.8192 20.6066 47.7547 21.0276 48.6871C22.2225 51.3338 23.3182 53.963 24.0609 56.5792M24.0609 56.5792C21.8921 57.953 20.666 58.9942 19.0721 60.3477C18.76 60.6127 18.4339 60.8897 18.0838 61.1834M24.0609 56.5792L18.0838 61.1834M24.0609 56.5792C24.7399 57.7552 25.4873 59.0784 25.9737 59.7174C26.506 60.4167 27.0132 60.8294 27.6545 60.9204C27.7759 60.9376 27.9007 60.9431 28.0299 60.9373C28.3136 60.9729 28.5978 60.9234 28.8748 60.768C29.2024 60.6608 32.9192 58.5624 33.3158 58.3637L35.9873 55.8744C38.7896 53.1906 40.4524 51.4515 41.9172 49.6296L41.9381 49.7129C41.9094 49.815 41.9 49.8485 41.897 49.8594C41.8955 49.8647 41.8956 49.8647 41.8956 49.8647L41.896 49.8649L41.9053 49.8675L41.9348 49.8759C41.961 49.8834 42 49.8946 42.051 49.9094C42.153 49.939 42.3029 49.9831 42.4941 50.0409C42.8767 50.1564 43.4249 50.3265 44.0865 50.5447C45.2936 50.9428 46.8771 51.5007 48.5211 52.1787C48.5734 52.2247 48.6267 52.2693 48.681 52.3126C49.506 52.9697 50.1765 53.6761 50.7791 54.3406C50.8844 54.4568 50.9879 54.572 51.09 54.6856L51.0902 54.6858L51.0904 54.686C51.5686 55.2182 52.0149 55.7148 52.4688 56.1116C53.0227 56.5957 53.6037 56.9461 54.2951 57.0396C54.835 57.1126 55.4275 57.0271 56.11 56.7477C56.5111 57.2165 56.7897 57.6915 56.9147 58.1675C57.2195 59.3286 57.9828 60.441 58.9406 61.4518C59.8998 62.4642 61.0641 63.3849 62.1871 64.1616C63.3107 64.9388 64.3966 65.5742 65.2013 66.0153C65.2321 66.0321 65.2625 66.0487 65.2924 66.065C65.3277 66.1412 65.3583 66.208 65.3841 66.2646L59.6892 66.289C57.1998 66.2208 54.3281 66.0808 52.4046 65.7958C49.6551 65.3886 46.9879 64.5599 44.3072 63.7269L44.2223 63.7005C41.5171 62.86 38.7974 62.0197 35.9873 61.6238C35.0879 61.4971 34.1684 61.5017 33.2625 61.5062C32.8332 61.5084 32.407 61.5105 31.9875 61.4986C30.6118 61.4597 29.1 61.4055 27.5736 61.3508L27.5727 61.3508C24.2726 61.2326 20.2927 61.1579 18.0838 61.1834M18.0838 61.1834L17.9307 61.3119L10.7776 66.612M10.7776 66.612L10.6991 66.8141C17.7871 75.2662 28.4258 80.64 40.3197 80.64C61.66 80.64 78.9597 63.3403 78.9597 42C78.9597 20.6597 61.66 3.35999 40.3197 3.35999C18.9794 3.35999 1.67969 20.6597 1.67969 42C1.67969 51.4048 5.03971 60.0249 10.6248 66.7253L10.7776 66.612ZM62.9151 21.9925C62.6381 21.4278 61.8065 20.4402 60.1434 20.5812C58.4803 20.7225 57.2329 22.2751 57.3717 24.2508C57.5106 26.2267 59.0348 27.3557 60.4205 27.3557C62.0836 27.3557 62.9151 26.0009 62.9151 26.0009M24.4056 56.3627L24.4655 56.4699L44.8594 41.3589L44.9501 41.415L44.8674 41.5489C44.9501 41.415 44.9507 41.4153 44.9507 41.4153L44.9514 41.4158L44.9531 41.4168L44.9575 41.4197C44.9609 41.4219 44.9651 41.4249 44.9702 41.4285C44.9804 41.4358 44.9938 41.446 45.0097 41.4594C45.0415 41.4862 45.0833 41.5258 45.129 41.5805C45.2208 41.6903 45.327 41.8593 45.4007 42.1047C45.5484 42.5962 45.5611 43.3763 45.0999 44.5773C44.6451 45.7617 43.724 47.3695 41.9911 49.5375L46.6054 48.3829C46.4069 47.3904 46.3241 46.3024 46.3377 45.1754C46.3741 42.1619 47.1007 38.8454 48.1823 36.2819C49.2452 33.7626 49.3612 31.707 49.2147 30.2859C49.1413 29.5748 49.0021 29.0216 48.8821 28.6477C48.8221 28.4608 48.7668 28.3187 48.727 28.2242C48.7071 28.1769 48.6911 28.1415 48.6802 28.1184C48.6772 28.1119 48.6746 28.1064 48.6724 28.1018L48.668 28.0929L48.6652 28.0872L48.6646 28.0861L48.6645 28.0859L48.6532 28.0639L47.5754 21.4452C46.9582 17.6552 45.6664 13.9113 42.7656 11.3557C39.8698 8.80441 35.3396 7.4111 28.1856 8.38797C24.5191 8.8983 21.567 11.1983 19.35 14.2243C17.1328 17.2505 15.6612 20.9897 14.9557 24.3444C13.8141 29.7729 15.4073 35.1588 17.6761 40.53C18.4122 42.2727 19.2168 44.008 20.0204 45.7414L20.0208 45.7422C20.456 46.6809 20.891 47.619 21.3147 48.5575C22.4978 51.1781 23.59 53.7948 24.3386 56.4046L24.4056 56.3627ZM69.2073 66.4327C68.3239 66.4349 67.4817 66.4197 66.6343 66.4041C66.6195 66.3969 66.5997 66.3874 66.5754 66.3756C66.5146 66.3459 66.4249 66.3018 66.3103 66.2439C66.1167 66.1463 65.8519 66.0096 65.5341 65.8378C65.3816 65.5107 65.16 65.0467 64.8827 64.4963C64.3272 63.3934 63.547 61.9418 62.6499 60.5507C61.7544 59.162 60.7357 57.8227 59.7009 56.9531C58.6726 56.0889 57.5749 55.6474 56.5602 56.187C56.4345 56.2538 56.3126 56.3141 56.1941 56.3681C55.6861 55.8155 55.0322 55.2857 54.2932 54.7844C52.8073 53.7764 50.9425 52.8605 49.1211 52.0882C48.9774 52.0272 48.8339 51.9672 48.6908 51.908C47.9865 51.2716 47.4802 50.3599 47.148 49.2612C47.0847 49.0519 47.0278 48.8361 46.9771 48.6146L47.1452 48.5725L47.1793 48.5922C47.2377 48.6259 47.3234 48.6752 47.4328 48.7381C47.6515 48.8639 47.965 49.0439 48.3441 49.2606C49.1023 49.694 50.123 50.2745 51.1728 50.8628C52.2225 51.4509 53.302 52.0472 54.1775 52.512C54.6151 52.7443 55.0029 52.9444 55.311 53.0943C55.6135 53.2415 55.8531 53.3474 55.9867 53.3828C56.4519 53.5058 57.0223 53.6492 57.4759 53.7617C57.7029 53.818 57.9008 53.8666 58.0419 53.9011L58.2024 53.9403C58.2101 53.9534 58.2191 53.9685 58.2292 53.9855C58.2684 54.0511 58.3252 54.1444 58.3959 54.2557C58.5373 54.478 58.7352 54.7738 58.9606 55.0651C59.1849 55.3552 59.4414 55.6473 59.7002 55.8579C59.9503 56.0612 60.2429 56.2217 60.5282 56.1664C60.685 56.1359 60.8766 56.1869 61.0927 56.3097C61.3058 56.4308 61.5216 56.6099 61.7173 56.7997C61.9121 56.9886 62.0821 57.1832 62.2036 57.3311C62.2642 57.4049 62.3125 57.4667 62.3454 57.5098C62.3619 57.5314 62.3746 57.5483 62.383 57.5597C62.3872 57.5653 62.3904 57.5696 62.3924 57.5725L62.3947 57.5756L62.3953 57.5764L62.3981 57.5803L65.3606 61.1914L67.5419 63.2251L69.2073 66.4327ZM65.8948 66.3851C65.8486 66.3612 65.8004 66.3361 65.75 66.3097C65.7521 66.3142 65.754 66.3185 65.7557 66.3224L65.7673 66.3486L65.7703 66.3553L65.7711 66.3571L65.7713 66.3575C65.7713 66.3575 65.7713 66.3576 65.7706 66.3579C65.7697 66.3583 65.7674 66.3594 65.7617 66.3618L65.7713 66.3577L65.782 66.382L65.8948 66.3851ZM64.6015 64.6379C64.7799 64.9922 64.9351 65.3103 65.0634 65.5788C64.3038 65.1533 63.3491 64.5824 62.3663 63.9026C61.2535 63.133 60.1082 62.2262 59.1692 61.2352C58.2287 60.2426 57.505 59.1759 57.2193 58.0875C57.0869 57.5831 56.8046 57.0911 56.41 56.615C56.5075 56.5688 56.6068 56.5189 56.708 56.4651C57.5426 56.0213 58.4937 56.35 59.4983 57.1942C60.4964 58.0331 61.4948 59.3405 62.3852 60.7214C63.2741 62.0998 64.0487 63.5407 64.6015 64.6379ZM55.8847 56.4983C55.4144 56.0038 54.8126 55.5173 54.1164 55.045C52.7894 54.1448 51.1474 53.3146 49.4992 52.5939C50.0695 53.1074 50.5627 53.6331 51.0124 54.1291C51.1203 54.248 51.2254 54.365 51.3284 54.4796L51.329 54.4802C51.8069 55.012 52.2377 55.4913 52.6761 55.8744C53.206 56.3376 53.7312 56.6455 54.3373 56.7275C54.784 56.7879 55.2877 56.7273 55.8847 56.4983ZM46.8465 49.3524C47.1105 50.2254 47.4857 51.0005 47.9908 51.6241C46.5748 51.0606 45.237 50.5925 44.1852 50.2456C43.5207 50.0265 42.97 49.8555 42.5852 49.7394C42.5693 49.7346 42.5537 49.7298 42.5383 49.7252L46.6715 48.691C46.7234 48.9172 46.7816 49.1379 46.8465 49.3524ZM66.6177 23.9617C66.6177 27.3698 63.8548 30.1327 60.4467 30.1327C57.0385 30.1327 54.2757 27.3698 54.2757 23.9617C54.2757 20.5535 57.0385 17.7906 60.4467 17.7906C63.8548 17.7906 66.6177 20.5535 66.6177 23.9617Z" stroke="white" stroke-width="0.735774" stroke-linecap="round" stroke-linejoin="round"/>
</svg>
